<svg width="13" height="13" viewBox="0 0 13 13" fill="none" xmlns="http://www.w3.org/2000/svg">
<path d="M2.70276 6.6176C2.91066 6.6176 3.08392 6.78556 3.08392 6.98711V12.0707C3.08392 12.2722 2.91066 12.4402 2.70276 12.4402H0.958671C0.750767 12.4402 0.577513 12.2722 0.577513 12.0707V6.98711C0.577513 6.78556 0.750767 6.6176 0.958671 6.6176H2.70276ZM2.70276 6.05774H0.958671C0.427359 6.05774 0 6.47204 0 6.98711V12.0707C0 12.5857 0.427359 13 0.958671 13H2.70276C3.23407 13 3.66143 12.5857 3.66143 12.0707V6.98711C3.67298 6.47204 3.23407 6.05774 2.70276 6.05774Z" fill="#757575"/>
<path d="M8.0043 0V0.559862C8.39701 0.559862 8.72042 0.862188 8.72042 1.2317V1.53402C8.72042 1.86994 8.67422 2.19466 8.57026 2.51938L7.92345 4.69164C7.87725 4.8596 7.9119 5.03876 8.01585 5.18432C8.1198 5.32989 8.29306 5.40827 8.47786 5.40827H11.9198C12.1393 5.40827 12.3356 5.53144 12.3934 5.72179C12.4511 5.88975 12.4049 6.01292 12.3587 6.0913C12.2894 6.20327 12.1739 6.29285 12.0469 6.31524C11.7812 6.38243 11.608 6.61757 11.608 6.87511C11.6195 7.13264 11.8159 7.35659 12.0815 7.40138C12.2548 7.43497 12.4396 7.59173 12.4165 7.81568C12.3934 8.00603 12.197 8.15159 11.9314 8.15159C11.6311 8.15159 11.377 8.38673 11.3539 8.67786C11.3308 8.96899 11.5502 9.22653 11.8621 9.27132C12.0469 9.29371 12.1739 9.43928 12.1739 9.60723C12.1739 9.78639 12.0353 9.92076 11.839 9.94315C11.5733 9.96555 11.3539 10.1783 11.3192 10.4358C11.2846 10.7046 11.4578 10.9509 11.7235 11.0293C11.8043 11.0517 11.8736 11.1189 11.8736 11.2196V11.3092C11.8736 11.4212 11.7697 11.5108 11.6426 11.5108L5.08209 11.5332C5.04744 11.5332 5.02434 11.5108 5.02434 11.4884V6.28165C5.02434 5.93454 5.13984 5.59862 5.35929 5.32989L7.32284 2.91128C7.63469 2.50818 7.8195 2.0155 7.8195 1.51163V0.727821C7.8195 0.638243 7.90035 0.559862 7.9812 0.559862L8.0043 0ZM8.0043 0C7.99275 0 7.9812 0 7.96965 0C7.56539 0.0111972 7.24199 0.335917 7.24199 0.727821V1.51163C7.24199 1.89233 7.11493 2.26184 6.87238 2.56417L4.90883 4.98277C4.60853 5.35228 4.44682 5.81137 4.44682 6.28165V11.4884C4.44682 11.8243 4.73558 12.093 5.08209 12.093L11.6542 12.0818C12.0931 12.0818 12.4511 11.7347 12.4511 11.3204V11.2308C12.4511 10.8949 12.2201 10.6038 11.8967 10.503C12.3703 10.4582 12.7515 10.0775 12.7515 9.60723C12.7515 9.14815 12.3934 8.77864 11.9314 8.72265H11.9776C12.4858 8.72265 12.9478 8.36434 12.994 7.88286C13.0402 7.37898 12.6822 6.95349 12.197 6.86391C12.763 6.71835 13.1442 6.15848 12.9478 5.55383C12.8092 5.12834 12.3934 4.84841 11.9198 4.84841H11.8967H8.47786L9.13623 2.67614C9.25173 2.30663 9.30948 1.92593 9.30948 1.53402V1.2317C9.30948 0.548665 8.72042 0 8.0043 0Z" fill="#757575"/>
</svg>
