<svg width="148" height="148" viewBox="0 0 148 148" fill="none" xmlns="http://www.w3.org/2000/svg">
<g clip-path="url(#clip0_1487_933)">
<path d="M29.4467 148H12.3151C5.50074 148 0 142.769 0 136.289V80.6492C0 74.1692 5.50074 68.9383 12.3151 68.9383H29.4467C36.2611 68.9383 41.7618 74.1692 41.7618 80.6492V136.289C41.7618 142.769 36.2611 148 29.4467 148Z" fill="url(#paint0_linear_1487_933)"/>
<path d="M147.945 89.6796C148.52 83.9803 144.388 79.0878 138.832 78.0989C145.236 76.5114 149.642 70.1354 147.425 63.213C145.893 58.3725 141.049 55.1715 135.74 55.1715H135.493H96.5776L104.021 30.4224C105.28 26.2065 105.937 21.8344 105.937 17.4363V14.0271C105.937 6.14175 99.0954 -0.234191 90.7211 2.73818e-05C86.0688 0.130149 82.429 3.87764 82.429 8.30177V17.176C82.429 21.5221 80.9511 25.738 78.1871 29.2253L55.9105 56.785C52.4896 61.0269 50.6287 66.2058 50.6287 71.5668V130.85C50.6287 134.65 53.858 137.72 57.8535 137.72L132.62 137.616C137.655 137.616 141.76 133.739 141.76 128.924V127.883C141.76 124.032 139.106 120.753 135.439 119.634C140.885 119.139 145.154 114.793 145.154 109.458C145.154 104.253 141.076 99.9853 135.794 99.3347H136.342C142.226 99.3086 147.398 95.2228 147.945 89.6796Z" fill="url(#paint1_linear_1487_933)"/>
</g>
<defs>
<linearGradient id="paint0_linear_1487_933" x1="20.8809" y1="68.9383" x2="20.8809" y2="148" gradientUnits="userSpaceOnUse">
<stop stop-color="#833586"/>
<stop offset="1" stop-color="#833586"/>
</linearGradient>
<linearGradient id="paint1_linear_1487_933" x1="99.3171" y1="-0.00622559" x2="99.3171" y2="137.72" gradientUnits="userSpaceOnUse">
<stop stop-color="#833586"/>
<stop offset="1" stop-color="#833586"/>
</linearGradient>
<clipPath id="clip0_1487_933">
<rect width="148" height="148" fill="white"/>
</clipPath>
</defs>
</svg>
