<svg width="500" height="500" viewBox="0 0 500 500" fill="none" xmlns="http://www.w3.org/2000/svg">
<path d="M500 382.4H0V382.65H500V382.4Z" fill="#EBEBEB"/>
<path d="M449.9 398.49H416.78V398.74H449.9V398.49Z" fill="#EBEBEB"/>
<path d="M331.22 401.21H322.53V401.46H331.22V401.21Z" fill="#EBEBEB"/>
<path d="M415.78 389.21H396.59V389.46H415.78V389.21Z" fill="#EBEBEB"/>
<path d="M95.65 390.89H52.46V391.14H95.65V390.89Z" fill="#EBEBEB"/>
<path d="M110.89 390.89H104.56V391.14H110.89V390.89Z" fill="#EBEBEB"/>
<path d="M225.15 395.11H131.47V395.36H225.15V395.11Z" fill="#EBEBEB"/>
<path d="M237 337.8H43.91C42.3973 337.797 40.9475 337.195 39.8788 336.124C38.8102 335.054 38.21 333.603 38.21 332.09V60.66C38.2231 59.156 38.8292 57.718 39.8964 56.6582C40.9637 55.5985 42.4059 55.0026 43.91 55H237C238.514 55 239.967 55.6016 241.038 56.6724C242.108 57.7433 242.71 59.1956 242.71 60.71V332.09C242.71 333.604 242.108 335.057 241.038 336.128C239.967 337.198 238.514 337.8 237 337.8ZM43.91 55.2C42.4636 55.2026 41.0774 55.7791 40.0556 56.8027C39.0338 57.8264 38.46 59.2136 38.46 60.66V332.09C38.46 333.536 39.0338 334.924 40.0556 335.947C41.0774 336.971 42.4636 337.547 43.91 337.55H237C238.447 337.547 239.834 336.971 240.858 335.948C241.881 334.924 242.457 333.537 242.46 332.09V60.66C242.457 59.2127 241.881 57.8255 240.858 56.8021C239.834 55.7787 238.447 55.2026 237 55.2H43.91Z" fill="#EBEBEB"/>
<path d="M453.31 337.8H260.21C258.696 337.797 257.246 337.195 256.175 336.125C255.105 335.054 254.503 333.604 254.5 332.09V60.66C254.516 59.1551 255.124 57.7171 256.193 56.6576C257.262 55.5981 258.705 55.0025 260.21 55H453.31C454.812 55.0052 456.252 55.6022 457.317 56.6617C458.382 57.7212 458.987 59.1578 459 60.66V332.09C459 333.601 458.401 335.05 457.335 336.121C456.268 337.191 454.821 337.795 453.31 337.8ZM260.21 55.2C258.763 55.2026 257.375 55.7787 256.352 56.8021C255.329 57.8255 254.753 59.2127 254.75 60.66V332.09C254.753 333.537 255.329 334.924 256.352 335.948C257.375 336.971 258.763 337.547 260.21 337.55H453.31C454.757 337.547 456.145 336.971 457.168 335.948C458.191 334.924 458.767 333.537 458.77 332.09V60.66C458.767 59.2127 458.191 57.8255 457.168 56.8021C456.145 55.7787 454.757 55.2026 453.31 55.2H260.21Z" fill="#EBEBEB"/>
<path d="M289.69 174.06L427.47 174.06V83.83L289.69 83.83V174.06Z" fill="#E6E6E6"/>
<path d="M285.48 174.06L425.5 174.06V83.83L285.48 83.83V174.06Z" fill="#F0F0F0"/>
<path d="M289.69 191.76L427.47 191.76V174.05L289.69 174.05V191.76Z" fill="#E6E6E6"/>
<path d="M278.49 191.76L418.51 191.76V174.05L278.49 174.05V191.76Z" fill="#F0F0F0"/>
<path d="M419.62 168.18V89.72L291.37 89.72V168.18H419.62Z" fill="#FAFAFA"/>
<path d="M390.7 168.17L374.32 89.72H348.76L365.14 168.17H390.7Z" fill="white"/>
<path d="M416.9 162.32C416.956 162.32 417.012 162.309 417.063 162.287C417.115 162.265 417.162 162.234 417.201 162.193C417.24 162.153 417.271 162.106 417.291 162.054C417.312 162.002 417.321 161.946 417.32 161.89V93.55C417.32 93.4386 417.276 93.3318 417.197 93.253C417.118 93.1743 417.011 93.13 416.9 93.13C416.845 93.1286 416.789 93.1386 416.738 93.1592C416.686 93.1798 416.639 93.2107 416.6 93.25C416.561 93.2892 416.53 93.3361 416.509 93.3877C416.489 93.4393 416.479 93.4945 416.48 93.55V161.89C416.479 161.946 416.489 162.002 416.509 162.054C416.53 162.106 416.56 162.153 416.6 162.193C416.639 162.234 416.685 162.265 416.737 162.287C416.789 162.309 416.844 162.32 416.9 162.32Z" fill="#F0F0F0"/>
<path d="M359.65 168.17L343.27 89.72H333.3L349.69 168.17H359.65Z" fill="white"/>
<path d="M292.12 168.18V89.72H291.37V168.18H292.12Z" fill="#E6E6E6"/>
<path opacity="0.6" d="M284.1 98.59H421.88L422.42 92H284.64L284.1 98.59Z" fill="#EBEBEB"/>
<path opacity="0.6" d="M284.1 109.39H421.88L422.42 102.81H284.64L284.1 109.39Z" fill="#EBEBEB"/>
<path opacity="0.6" d="M284.1 120.19H421.88L422.42 113.61H284.64L284.1 120.19Z" fill="#EBEBEB"/>
<path opacity="0.6" d="M284.1 131H421.88L422.42 124.41H284.64L284.1 131Z" fill="#EBEBEB"/>
<path opacity="0.6" d="M284.1 141.8H421.88L422.42 135.21H284.64L284.1 141.8Z" fill="#EBEBEB"/>
<path opacity="0.6" d="M284.1 152.6H421.88L422.42 146.01H284.64L284.1 152.6Z" fill="#EBEBEB"/>
<path d="M407.69 316.78H378.8V322.48H407.69V316.78Z" fill="#E6E6E6"/>
<path d="M324.31 382.4H329.64V251.33H324.31V382.4Z" fill="#E6E6E6"/>
<path d="M305.83 322.48H378.79V316.78H305.83V322.48Z" fill="#F5F5F5"/>
<path d="M407.69 347.95H378.8V353.65H407.69V347.95Z" fill="#E6E6E6"/>
<path d="M305.83 353.64H378.79V347.94H305.83V353.64Z" fill="#F5F5F5"/>
<path d="M407.69 254.45H378.8V260.15H407.69V254.45Z" fill="#E6E6E6"/>
<path d="M305.83 260.14H378.79V254.44H305.83V260.14Z" fill="#F5F5F5"/>
<path d="M407.69 285.61H378.8V291.31H407.69V285.61Z" fill="#E6E6E6"/>
<path d="M305.83 291.31H378.79V285.61H305.83V291.31Z" fill="#F5F5F5"/>
<path d="M397.28 382.4H402.61V251.33H397.28V382.4Z" fill="#E6E6E6"/>
<path d="M373.46 382.4H378.79V251.33H373.46V382.4Z" fill="#F5F5F5"/>
<path d="M305.83 382.4H311.16V251.33H305.83V382.4Z" fill="#F5F5F5"/>
<path d="M65.38 382.4H119.96L119.96 276.51H65.38L65.38 382.4Z" fill="#E6E6E6"/>
<path d="M79.9501 382.4H65.3701V367.78H95.2301L79.9501 382.4Z" fill="#FAFAFA"/>
<path d="M214.18 382.4H268.76V276.51H214.18V382.4Z" fill="#E6E6E6"/>
<path d="M65.3799 377.36H226.91V276.5H65.3799V377.36Z" fill="#FAFAFA"/>
<path d="M212.33 382.4H226.9V367.78H197.05L212.33 382.4Z" fill="#FAFAFA"/>
<path d="M76.6801 339.33H215.6V314.09H76.6801V339.33Z" fill="#F0F0F0"/>
<path d="M76.6801 369.96H215.6V344.72H76.6801V369.96Z" fill="#F0F0F0"/>
<path d="M189.2 316.79H103.09C101.875 316.79 100.71 316.307 99.8515 315.449C98.9926 314.59 98.51 313.425 98.51 312.21V311.9H193.77V312.21C193.77 313.423 193.289 314.586 192.432 315.445C191.575 316.304 190.413 316.787 189.2 316.79Z" fill="#FAFAFA"/>
<path d="M76.6801 308.69H215.6V283.45H76.6801V308.69Z" fill="#F0F0F0"/>
<path d="M189.2 286.15H103.09C101.875 286.15 100.71 285.667 99.8515 284.809C98.9926 283.95 98.51 282.785 98.51 281.57V281.26H193.77V281.57C193.77 282.783 193.289 283.946 192.432 284.805C191.575 285.664 190.413 286.147 189.2 286.15Z" fill="#FAFAFA"/>
<path d="M189.2 347.43H103.09C101.875 347.43 100.71 346.947 99.8515 346.089C98.9926 345.23 98.51 344.065 98.51 342.85V342.54H193.77V342.85C193.77 344.063 193.289 345.226 192.432 346.085C191.575 346.944 190.413 347.427 189.2 347.43Z" fill="#FAFAFA"/>
<path d="M74.0701 174.06L211.85 174.06V83.83L74.0701 83.83V174.06Z" fill="#E6E6E6"/>
<path d="M69.8699 174.06L209.89 174.06V83.83L69.8699 83.83V174.06Z" fill="#F0F0F0"/>
<path d="M74.0701 191.76L211.85 191.76V174.05L74.0701 174.05V191.76Z" fill="#E6E6E6"/>
<path d="M62.8599 191.76L202.88 191.76V174.05L62.8599 174.05V191.76Z" fill="#F0F0F0"/>
<path d="M204 168.18V89.72L75.75 89.72V168.18H204Z" fill="#FAFAFA"/>
<path d="M175.08 168.17L158.7 89.72H133.14L149.52 168.17H175.08Z" fill="white"/>
<path d="M201.27 162.32C201.326 162.32 201.381 162.309 201.433 162.287C201.485 162.265 201.531 162.234 201.571 162.193C201.61 162.153 201.64 162.106 201.661 162.054C201.681 162.002 201.691 161.946 201.69 161.89V93.55C201.691 93.4945 201.681 93.4393 201.661 93.3877C201.64 93.3361 201.609 93.2892 201.57 93.25C201.531 93.2107 201.484 93.1798 201.432 93.1592C201.381 93.1386 201.326 93.1286 201.27 93.13C201.159 93.13 201.052 93.1743 200.973 93.253C200.894 93.3318 200.85 93.4386 200.85 93.55V161.89C200.849 161.946 200.859 162.002 200.879 162.054C200.9 162.106 200.93 162.153 200.969 162.193C201.009 162.234 201.055 162.265 201.107 162.287C201.159 162.309 201.214 162.32 201.27 162.32Z" fill="#F0F0F0"/>
<path d="M144.03 168.17L127.65 89.72H117.68L134.06 168.17H144.03Z" fill="white"/>
<path d="M76.5 168.18V89.72H75.75V168.18H76.5Z" fill="#E6E6E6"/>
<path opacity="0.6" d="M68.47 98.59H206.25L206.79 92H69.01L68.47 98.59Z" fill="#EBEBEB"/>
<path opacity="0.6" d="M68.47 102.31H206.25L206.79 95.72H69.01L68.47 102.31Z" fill="#EBEBEB"/>
<path opacity="0.6" d="M68.47 106.02H206.25L206.79 99.44H69.01L68.47 106.02Z" fill="#EBEBEB"/>
<path opacity="0.6" d="M68.47 109.74H206.25L206.79 103.15H69.01L68.47 109.74Z" fill="#EBEBEB"/>
<path opacity="0.6" d="M68.47 113.45H206.25L206.79 106.87H69.01L68.47 113.45Z" fill="#EBEBEB"/>
<path opacity="0.6" d="M68.47 117.17H206.25L206.79 110.58H69.01L68.47 117.17Z" fill="#EBEBEB"/>
<path d="M96.02 273.27H100.78V220.18H96.02V273.27Z" fill="#F5F5F5"/>
<path d="M96.62 273.24H97.97V220.15H96.62V273.24Z" fill="#FAFAFA"/>
<path d="M98.5301 273.24H99.0601V220.15H98.5301V273.24Z" fill="#FAFAFA"/>
<path d="M116.03 276.51H80.79C80.79 275.332 81.2578 274.203 82.0905 273.37C82.9231 272.538 84.0525 272.07 85.23 272.07H111.58C112.758 272.07 113.887 272.538 114.72 273.37C115.552 274.203 116.02 275.332 116.02 276.51H116.03Z" fill="#F0F0F0"/>
<path d="M89.84 253.14C90.2025 253.137 90.5494 252.992 90.8058 252.736C91.0622 252.48 91.2073 252.133 91.21 251.77V217C91.21 216.637 91.0656 216.288 90.8087 216.031C90.5518 215.774 90.2033 215.63 89.84 215.63C89.6592 215.629 89.48 215.663 89.3126 215.731C89.1452 215.8 88.993 215.9 88.8648 216.028C88.7365 216.155 88.6347 216.307 88.5652 216.473C88.4957 216.64 88.46 216.819 88.46 217V251.81C88.4729 252.167 88.624 252.506 88.8814 252.754C89.1388 253.002 89.4825 253.14 89.84 253.14Z" fill="#F0F0F0"/>
<path d="M77.0701 232.8H119.72L114.81 203H81.9801L77.0701 232.8Z" fill="#E0E0E0"/>
<path d="M250 427.56C357.083 427.56 443.89 422.492 443.89 416.24C443.89 409.988 357.083 404.92 250 404.92C142.918 404.92 56.1101 409.988 56.1101 416.24C56.1101 422.492 142.918 427.56 250 427.56Z" fill="#F5F5F5"/>
<path d="M104.119 202.359L103.121 202.431L104.45 220.873L105.447 220.801L104.119 202.359Z" fill="#833586"/>
<path d="M106.125 230.322L105.127 230.394L105.627 237.336L106.625 237.264L106.125 230.322Z" fill="#833586"/>
<path d="M337.71 315.16H123.55C121.166 315.117 118.882 314.193 117.139 312.566C115.396 310.94 114.317 308.725 114.11 306.35L103.59 160.22C103.492 159.093 103.631 157.958 103.999 156.888C104.366 155.818 104.954 154.837 105.723 154.008C106.493 153.179 107.428 152.521 108.468 152.075C109.507 151.629 110.629 151.406 111.76 151.42H325.92C328.302 151.463 330.585 152.385 332.327 154.01C334.07 155.634 335.15 157.847 335.36 160.22L345.88 306.35C345.978 307.477 345.838 308.613 345.471 309.683C345.104 310.754 344.516 311.735 343.747 312.565C342.977 313.395 342.043 314.054 341.003 314.501C339.963 314.948 338.842 315.173 337.71 315.16Z" fill="#833586"/>
<path d="M338.53 315.16H124.37C121.986 315.117 119.702 314.193 117.959 312.566C116.216 310.94 115.137 308.725 114.93 306.35L104.41 160.22C104.312 159.093 104.451 157.958 104.819 156.888C105.186 155.818 105.774 154.837 106.544 154.008C107.313 153.179 108.248 152.521 109.288 152.075C110.327 151.629 111.449 151.406 112.58 151.42H326.74C329.122 151.463 331.405 152.385 333.147 154.01C334.89 155.634 335.97 157.847 336.18 160.22L346.7 306.35C346.799 307.478 346.661 308.614 346.294 309.685C345.928 310.756 345.34 311.738 344.57 312.568C343.801 313.399 342.865 314.058 341.825 314.504C340.784 314.951 339.662 315.174 338.53 315.16Z" fill="#833586"/>
<path opacity="0.5" d="M338.53 315.16H124.37C121.986 315.117 119.702 314.193 117.959 312.566C116.216 310.94 115.137 308.725 114.93 306.35L104.41 160.22C104.312 159.093 104.451 157.958 104.819 156.888C105.186 155.818 105.774 154.837 106.544 154.008C107.313 153.179 108.248 152.521 109.288 152.075C110.327 151.629 111.449 151.406 112.58 151.42H326.74C329.122 151.463 331.405 152.385 333.147 154.01C334.89 155.634 335.97 157.847 336.18 160.22L346.7 306.35C346.799 307.478 346.661 308.614 346.294 309.685C345.928 310.756 345.34 311.738 344.57 312.568C343.801 313.399 342.865 314.058 341.825 314.504C340.784 314.951 339.662 315.174 338.53 315.16Z" fill="white"/>
<path d="M327.06 155.82H112.9H112.18C106.71 156.27 107.83 164.6 113.35 164.6H327.87C333.4 164.6 333.32 156.27 327.78 155.82H327.06Z" fill="#833586"/>
<path d="M118.48 160.22C118.501 160.478 118.468 160.737 118.382 160.981C118.297 161.225 118.161 161.449 117.984 161.637C117.807 161.826 117.592 161.975 117.354 162.076C117.115 162.176 116.859 162.225 116.6 162.22C116.056 162.212 115.535 162.004 115.136 161.635C114.737 161.265 114.489 160.761 114.44 160.22C114.419 159.963 114.452 159.705 114.537 159.461C114.622 159.218 114.756 158.995 114.933 158.806C115.109 158.618 115.322 158.469 115.559 158.368C115.796 158.267 116.052 158.216 116.31 158.22C116.855 158.225 117.379 158.433 117.78 158.802C118.181 159.172 118.43 159.677 118.48 160.22Z" fill="#FAFAFA"/>
<path d="M125.35 160.22C125.371 160.478 125.338 160.737 125.252 160.981C125.167 161.225 125.031 161.449 124.854 161.637C124.677 161.826 124.462 161.975 124.224 162.076C123.985 162.176 123.728 162.225 123.47 162.22C122.926 162.212 122.405 162.004 122.006 161.635C121.607 161.265 121.359 160.761 121.31 160.22C121.289 159.963 121.322 159.705 121.407 159.461C121.492 159.218 121.626 158.995 121.802 158.806C121.978 158.618 122.192 158.469 122.429 158.368C122.666 158.267 122.922 158.216 123.18 158.22C123.725 158.225 124.249 158.433 124.65 158.802C125.051 159.172 125.3 159.677 125.35 160.22Z" fill="#FAFAFA"/>
<path d="M132.21 160.22C132.231 160.477 132.198 160.735 132.113 160.979C132.028 161.222 131.893 161.445 131.717 161.634C131.541 161.822 131.328 161.971 131.091 162.072C130.853 162.173 130.598 162.224 130.34 162.22C129.796 162.215 129.273 162.007 128.874 161.637C128.474 161.267 128.227 160.762 128.18 160.22C128.157 159.963 128.189 159.704 128.273 159.459C128.358 159.215 128.492 158.992 128.669 158.803C128.845 158.614 129.059 158.465 129.297 158.364C129.535 158.264 129.792 158.215 130.05 158.22C130.593 158.228 131.115 158.436 131.514 158.805C131.912 159.175 132.161 159.679 132.21 160.22Z" fill="#FAFAFA"/>
<path d="M332.85 300.58H128C127.135 300.566 126.305 300.23 125.673 299.639C125.041 299.048 124.652 298.243 124.58 297.38L115.93 177.21C115.891 176.798 115.941 176.382 116.076 175.99C116.21 175.598 116.426 175.24 116.71 174.938C116.994 174.636 117.338 174.399 117.721 174.24C118.104 174.082 118.516 174.007 118.93 174.02H323.83C324.694 174.032 325.523 174.365 326.156 174.955C326.788 175.545 327.178 176.348 327.25 177.21L335.91 297.38C335.947 297.798 335.895 298.219 335.757 298.614C335.618 299.01 335.396 299.372 335.107 299.675C334.817 299.978 334.465 300.216 334.076 300.372C333.687 300.528 333.269 300.599 332.85 300.58Z" fill="white"/>
<path d="M246.53 254.8L243.19 208.48L233.09 202.4H205.28L209.06 254.8H246.53Z" fill="white"/>
<path d="M246.53 255.28H209.06C208.936 255.283 208.816 255.238 208.724 255.154C208.633 255.07 208.578 254.954 208.57 254.83L204.8 202.43C204.795 202.364 204.804 202.298 204.827 202.236C204.849 202.174 204.884 202.118 204.93 202.07C204.974 202.021 205.028 201.981 205.088 201.953C205.148 201.926 205.214 201.911 205.28 201.91H233.09C233.178 201.913 233.263 201.937 233.34 201.98L243.44 208.06C243.508 208.099 243.565 208.154 243.607 208.22C243.649 208.286 243.674 208.362 243.68 208.44L247 254.76C247.007 254.827 246.999 254.896 246.976 254.96C246.954 255.024 246.917 255.082 246.87 255.13C246.826 255.177 246.774 255.214 246.715 255.24C246.657 255.266 246.594 255.279 246.53 255.28ZM209.53 254.28H246L242.72 208.73L233 202.88H205.8L209.53 254.28Z" fill="#833586"/>
<path d="M243.19 208.48L233.09 202.4L236.8 210.46L243.19 208.48Z" fill="#EBEBEB"/>
<path d="M236.8 210.94C236.708 210.939 236.617 210.913 236.54 210.863C236.462 210.814 236.4 210.743 236.36 210.66L232.65 202.6C232.607 202.505 232.594 202.4 232.614 202.297C232.634 202.195 232.685 202.102 232.76 202.03C232.839 201.962 232.938 201.921 233.042 201.912C233.146 201.903 233.25 201.927 233.34 201.98L243.44 208.06C243.521 208.109 243.587 208.18 243.63 208.265C243.672 208.35 243.69 208.445 243.68 208.54C243.667 208.632 243.628 208.719 243.568 208.789C243.508 208.86 243.429 208.912 243.34 208.94L236.94 210.94H236.8ZM234.19 203.62L237.06 209.87L242.06 208.34L234.19 203.62Z" fill="#833586"/>
<path d="M221 226C221.015 226.272 220.974 226.544 220.88 226.799C220.787 227.055 220.642 227.288 220.454 227.486C220.267 227.683 220.042 227.841 219.792 227.948C219.541 228.055 219.272 228.11 219 228.11C218.429 228.1 217.882 227.878 217.465 227.489C217.048 227.099 216.789 226.569 216.74 226C216.714 225.725 216.747 225.448 216.837 225.188C216.927 224.927 217.071 224.688 217.26 224.488C217.45 224.287 217.679 224.129 217.935 224.024C218.19 223.919 218.464 223.87 218.74 223.88C219.312 223.893 219.859 224.116 220.276 224.507C220.693 224.899 220.951 225.43 221 226Z" fill="#833586"/>
<path d="M234.7 226C234.724 226.274 234.69 226.55 234.6 226.809C234.509 227.069 234.365 227.306 234.175 227.506C233.986 227.705 233.757 227.862 233.503 227.966C233.248 228.071 232.975 228.12 232.7 228.11C232.128 228.1 231.58 227.879 231.161 227.49C230.742 227.1 230.482 226.57 230.43 226C230.413 225.727 230.453 225.454 230.546 225.198C230.639 224.941 230.784 224.706 230.971 224.508C231.159 224.309 231.385 224.151 231.636 224.043C231.887 223.935 232.157 223.88 232.43 223.88C233.004 223.888 233.555 224.11 233.974 224.502C234.394 224.893 234.653 225.428 234.7 226Z" fill="#833586"/>
<path d="M238.58 239.74C238.458 239.738 238.342 239.691 238.253 239.608C238.164 239.524 238.11 239.411 238.1 239.29C237.85 235.88 232.51 233.11 226.2 233.11C222.01 233.11 218.25 234.36 216.39 236.36C216.008 236.729 215.709 237.174 215.512 237.667C215.315 238.16 215.226 238.69 215.25 239.22C215.255 239.286 215.246 239.352 215.225 239.414C215.204 239.476 215.171 239.534 215.128 239.584C215.041 239.684 214.918 239.746 214.785 239.755C214.652 239.764 214.521 239.721 214.421 239.633C214.321 239.546 214.259 239.423 214.25 239.29C214.22 238.627 214.329 237.965 214.57 237.347C214.812 236.729 215.179 236.168 215.65 235.7C217.65 233.51 221.72 232.14 226.17 232.14C233.1 232.14 238.75 235.25 239.03 239.22C239.034 239.283 239.026 239.346 239.005 239.406C238.985 239.466 238.953 239.521 238.911 239.568C238.869 239.616 238.818 239.655 238.761 239.682C238.705 239.71 238.643 239.726 238.58 239.73V239.74Z" fill="#833586"/>
<path d="M213.17 221.72C213.048 221.718 212.931 221.671 212.84 221.59C212.749 221.498 212.698 221.374 212.698 221.245C212.698 221.116 212.749 220.992 212.84 220.9L214.97 218.61C215.061 218.522 215.183 218.473 215.31 218.473C215.437 218.473 215.558 218.522 215.65 218.61C215.695 218.655 215.73 218.708 215.754 218.766C215.779 218.824 215.791 218.887 215.791 218.95C215.791 219.013 215.779 219.076 215.754 219.134C215.73 219.192 215.695 219.245 215.65 219.29L213.52 221.58C213.474 221.626 213.419 221.662 213.359 221.686C213.299 221.71 213.235 221.721 213.17 221.72Z" fill="#833586"/>
<path d="M237.58 221.72C237.458 221.714 237.342 221.669 237.25 221.59L234.8 219.3C234.754 219.255 234.717 219.202 234.692 219.142C234.667 219.083 234.654 219.019 234.654 218.955C234.654 218.891 234.667 218.827 234.692 218.768C234.717 218.708 234.754 218.655 234.8 218.61C234.891 218.522 235.013 218.473 235.14 218.473C235.267 218.473 235.389 218.522 235.48 218.61L237.93 220.9C237.975 220.945 238.01 220.998 238.034 221.056C238.059 221.114 238.071 221.177 238.071 221.24C238.071 221.303 238.059 221.366 238.034 221.424C238.01 221.482 237.975 221.535 237.93 221.58C237.835 221.669 237.71 221.719 237.58 221.72Z" fill="#833586"/>
<path d="M353.69 173.08C354.58 172.63 355.69 172.08 356.63 171.51C357.57 170.94 358.63 170.39 359.63 169.79C361.58 168.58 363.56 167.39 365.43 166.07C369.186 163.5 372.706 160.602 375.95 157.41C376.36 157.03 376.72 156.61 377.11 156.2L377.68 155.59L377.96 155.29L378.1 155.13C377.96 155.4 378.1 155.32 378.1 155.06C378.188 154.703 378.238 154.338 378.25 153.97C378.227 151.844 377.982 149.726 377.52 147.65C376.63 143.17 375.28 138.55 373.95 134.03L377.83 132.33C380.279 136.667 382.324 141.219 383.94 145.93C384.848 148.476 385.426 151.127 385.66 153.82C385.721 154.657 385.694 155.498 385.58 156.33C385.432 157.506 385.014 158.632 384.36 159.62L384.19 159.85L384.06 160.01L383.91 160.2L383.6 160.58L382.98 161.33C382.57 161.82 382.17 162.33 381.73 162.8C378.31 166.595 374.495 170.014 370.35 173C368.35 174.48 366.23 175.9 364.06 177.19C362.99 177.84 361.9 178.46 360.79 179.07C359.68 179.68 358.6 180.24 357.32 180.84L353.69 173.08Z" fill="#FFB573"/>
<path d="M344.79 408.18C345.539 408.161 346.283 408.061 347.01 407.88C347.047 407.869 347.08 407.848 347.106 407.82C347.133 407.792 347.151 407.757 347.16 407.72C347.165 407.682 347.159 407.643 347.143 407.607C347.127 407.572 347.102 407.542 347.07 407.52C346.78 407.33 344.24 405.69 343.26 406.13C343.151 406.181 343.058 406.259 342.99 406.358C342.921 406.456 342.88 406.571 342.87 406.69C342.831 406.879 342.841 407.074 342.898 407.258C342.956 407.442 343.06 407.608 343.2 407.74C343.659 408.074 344.224 408.23 344.79 408.18ZM346.44 407.6C344.99 407.89 343.89 407.84 343.44 407.45C343.35 407.358 343.284 407.245 343.249 407.121C343.214 406.996 343.211 406.866 343.24 406.74C343.244 406.687 343.261 406.636 343.291 406.592C343.321 406.548 343.362 406.513 343.41 406.49C343.94 406.26 345.41 407 346.44 407.6Z" fill="#833586"/>
<path d="M347 407.88H347.1C347.129 407.862 347.154 407.837 347.171 407.807C347.189 407.778 347.198 407.744 347.2 407.71C347.2 407.6 347.2 405.19 346.28 404.39C346.17 404.284 346.037 404.204 345.891 404.157C345.746 404.111 345.591 404.098 345.44 404.12C345.282 404.121 345.13 404.177 345.008 404.277C344.886 404.377 344.802 404.516 344.77 404.67C344.58 405.67 346.1 407.42 346.9 407.88C346.933 407.889 346.967 407.889 347 407.88ZM345.57 404.49C345.733 404.491 345.889 404.551 346.01 404.66C346.538 405.438 346.81 406.36 346.79 407.3C345.99 406.66 345.04 405.3 345.16 404.73C345.16 404.64 345.23 404.52 345.48 404.49H345.57Z" fill="#833586"/>
<path d="M346.22 148.07C345.22 153.07 343.22 163.07 346.67 166.42C346.67 166.42 345.31 171.42 336.08 171.42C325.92 171.42 331.23 166.42 331.23 166.42C336.77 165.1 336.62 160.99 335.66 157.12L346.22 148.07Z" fill="#FFB573"/>
<path d="M329.28 168.42C327.69 168.64 329.05 164.51 329.69 164.08C331.19 163.08 350.55 161.69 350.42 164.08C350.34 165.08 349.86 167.08 349.02 167.74C348.18 168.4 343.2 166.34 329.28 168.42Z" fill="#263238"/>
<path d="M332.44 167C331.17 167.43 331.29 163.27 331.72 162.77C332.72 161.61 348.39 157.59 348.85 159.86C349.03 160.86 349.12 162.86 348.58 163.57C348.04 164.28 343.44 163.11 332.44 167Z" fill="#263238"/>
<path d="M326.61 139.11C326.547 139.113 326.484 139.101 326.427 139.075C326.37 139.048 326.319 139.009 326.28 138.96C325.975 138.567 325.581 138.25 325.131 138.037C324.682 137.823 324.188 137.718 323.69 137.73C323.638 137.737 323.585 137.733 323.534 137.719C323.484 137.705 323.436 137.681 323.395 137.649C323.354 137.616 323.32 137.575 323.295 137.529C323.27 137.483 323.255 137.432 323.25 137.38C323.241 137.277 323.273 137.175 323.338 137.095C323.404 137.014 323.497 136.963 323.6 136.95C324.229 136.918 324.857 137.038 325.43 137.301C326.003 137.564 326.504 137.962 326.89 138.46C326.957 138.541 326.989 138.645 326.98 138.75C326.971 138.855 326.92 138.952 326.84 139.02C326.772 139.069 326.693 139.1 326.61 139.11Z" fill="#263238"/>
<path d="M324.67 144C324.216 145.595 323.543 147.12 322.67 148.53C323.037 148.741 323.445 148.869 323.867 148.905C324.288 148.941 324.712 148.885 325.11 148.74L324.67 144Z" fill="#FF5652"/>
<path d="M325.16 142.79C325.23 143.46 324.92 144.04 324.48 144.08C324.04 144.12 323.63 143.62 323.57 142.94C323.51 142.26 323.81 141.69 324.24 141.65C324.67 141.61 325.09 142.11 325.16 142.79Z" fill="#263238"/>
<path d="M324.44 141.67L322.78 141.36C322.78 141.36 323.73 142.54 324.44 141.67Z" fill="#263238"/>
<path d="M356.7 407.69H348.32L348.98 388.29H357.36L356.7 407.69Z" fill="#FFB573"/>
<path d="M347.66 406.72H357.07C357.232 406.716 357.39 406.772 357.514 406.877C357.637 406.982 357.718 407.129 357.74 407.29L358.81 414.73C358.831 414.918 358.812 415.109 358.754 415.289C358.697 415.469 358.601 415.635 358.475 415.776C358.348 415.917 358.193 416.029 358.02 416.106C357.847 416.182 357.659 416.221 357.47 416.22C354.19 416.17 352.61 415.97 348.47 415.97C345.92 415.97 342.2 416.24 338.69 416.24C335.18 416.24 334.98 412.76 336.45 412.45C343.01 411.03 344.05 409.09 346.26 407.23C346.654 406.903 347.148 406.723 347.66 406.72Z" fill="#263238"/>
<g opacity="0.2">
<path d="M357.36 388.29H348.98L348.64 398.29H357.02L357.36 388.29Z" fill="black"/>
</g>
<path d="M323.37 178C318.242 176.006 313.219 173.753 308.32 171.25C303.26 168.777 298.439 165.841 293.92 162.48C292.713 161.534 291.57 160.509 290.5 159.41C290.22 159.11 289.94 158.83 289.67 158.48C289.353 158.122 289.059 157.745 288.79 157.35C288.052 156.276 287.592 155.035 287.45 153.74C287.34 152.512 287.507 151.275 287.94 150.12C288.287 149.192 288.761 148.317 289.35 147.52C290.316 146.199 291.456 145.015 292.74 144C295.006 142.196 297.452 140.631 300.04 139.33C301.28 138.67 302.54 138.08 303.82 137.53C305.1 136.98 306.36 136.46 307.73 135.99L309.5 139.84C305.14 142.59 300.62 145.62 297.3 149C296.557 149.753 295.903 150.588 295.35 151.49C294.87 152.28 294.88 152.87 294.96 152.82C295.04 152.77 294.96 152.82 295.1 152.92L295.5 153.35C295.65 153.53 295.86 153.71 296.05 153.9C296.897 154.68 297.796 155.401 298.74 156.06C300.804 157.522 302.955 158.857 305.18 160.06C307.43 161.32 309.75 162.51 312.11 163.65C316.83 165.91 321.71 168.08 326.5 170.06L323.37 178Z" fill="#FFB573"/>
<path d="M312 137.15L313.38 134.15L307.06 132C307.06 132 305.06 137.91 307.43 140.63C308.42 140.474 309.356 140.074 310.154 139.467C310.952 138.86 311.586 138.063 312 137.15Z" fill="#FFB573"/>
<path d="M313.35 127.66L308.32 126.2L307.06 131.96L313.35 134.15V127.66Z" fill="#FFB573"/>
<path d="M378.35 134.44L379.08 127.44L372.6 129C372.6 129 372.5 135.58 375.93 136.62L378.35 134.44Z" fill="#FFB573"/>
<path d="M375.96 122.51L371.73 124.48L372.6 128.95L379.08 127.42L375.96 122.51Z" fill="#FFB573"/>
<path d="M347.54 138.25C347.85 146.56 348.15 150.07 344.4 154.72C338.75 161.72 328.48 160.27 325.7 152.22C323.2 144.98 323.12 132.61 330.88 128.53C332.586 127.623 334.495 127.167 336.427 127.205C338.359 127.243 340.249 127.774 341.918 128.748C343.587 129.722 344.98 131.106 345.964 132.769C346.947 134.432 347.49 136.318 347.54 138.25Z" fill="#FFB573"/>
<path d="M343.92 154.71C352.08 151.18 357.44 143.71 355.18 132.13C353.01 121.02 345.51 119.92 342.41 122.22C339.31 124.52 331.58 121.09 326.94 124.99C318.94 131.76 326.5 138.99 330.46 143.36C332.82 148.22 335.92 158.16 343.92 154.71Z" fill="#263238"/>
<path d="M340.53 130.14C341.525 131.417 342.873 132.374 344.406 132.894C345.94 133.414 347.592 133.474 349.158 133.065C350.725 132.657 352.138 131.799 353.223 130.597C354.307 129.395 355.016 127.902 355.262 126.301C355.508 124.701 355.279 123.064 354.605 121.592C353.931 120.12 352.841 118.877 351.469 118.018C350.096 117.158 348.503 116.719 346.884 116.755C345.265 116.791 343.693 117.3 342.36 118.22C340.537 119.558 339.32 121.566 338.977 123.801C338.634 126.036 339.193 128.316 340.53 130.14Z" fill="#833586"/>
<path d="M342.65 123C341.48 116.3 347.81 111.14 356.29 113.63C364.77 116.12 360.29 123.63 358.54 129.63C356.79 135.63 361.37 141.35 363.27 136.78C365.17 132.21 361.97 130.78 361.97 130.78C361.97 130.78 370.97 133.11 362.61 143.26C354.25 153.41 346.68 142.2 348.73 135.59C350.39 130.28 343.76 129.33 342.65 123Z" fill="#263238"/>
<path d="M334.18 125.53C330.31 123.53 323.76 121.88 320.03 128.16C318.27 131.16 318.95 135.16 318.95 135.16L330.34 135.91L334.18 125.53Z" fill="#263238"/>
<path d="M317.61 133.18C317.543 133.175 317.48 133.144 317.435 133.094C317.391 133.043 317.367 132.977 317.37 132.91C317.37 132.74 317.66 128.72 320.09 126.2C325.96 120.1 332.84 125.2 334.8 126.85C334.842 126.895 334.866 126.953 334.868 127.015C334.87 127.076 334.849 127.136 334.809 127.183C334.77 127.23 334.714 127.261 334.654 127.269C334.593 127.278 334.531 127.264 334.48 127.23C332.59 125.61 326.01 120.76 320.48 126.54C318.18 128.93 317.9 132.9 317.9 132.94C317.899 132.976 317.89 133.011 317.875 133.043C317.859 133.075 317.837 133.103 317.809 133.126C317.782 133.149 317.75 133.165 317.715 133.175C317.681 133.184 317.645 133.186 317.61 133.18Z" fill="#263238"/>
<path d="M331.85 143C331.805 144.573 331.223 146.084 330.2 147.28C328.82 148.9 327.2 148.1 326.87 146.28C326.54 144.67 326.87 141.88 328.61 140.91C330.35 139.94 331.87 141.18 331.85 143Z" fill="#FFB573"/>
<path d="M330.05 219.12C330.05 219.12 330.59 277.27 335.63 309.67C339.71 335.84 347.24 396.36 347.24 396.36H358.67C358.67 396.36 359.78 337.93 357.67 312.05C352.44 246.55 365.95 234.3 355.05 219.12H330.05Z" fill="#263238"/>
<path opacity="0.1" d="M330.05 219.12C330.05 219.12 330.59 277.27 335.63 309.67C339.71 335.84 347.24 396.36 347.24 396.36H358.67C358.67 396.36 359.78 337.93 357.67 312.05C352.44 246.55 365.95 234.3 355.05 219.12H330.05Z" fill="white"/>
<path opacity="0.3" d="M336.06 245.5C340.06 263.05 336.87 290.69 334.68 302.86C332.36 284.38 331.19 260.43 330.61 242.86C332.68 239.52 334.64 239.3 336.06 245.5Z" fill="black"/>
<path d="M345.68 396.58H360.23L360.99 391.48L345.6 390.96L345.68 396.58Z" fill="#833586"/>
<path d="M349.83 170C351.2 167.28 358.56 165.57 362.58 165.58L365.58 178.94C365.58 178.94 357.58 190.83 354.24 189.57C350.31 188.12 346.9 175.87 349.83 170Z" fill="#833586"/>
<path opacity="0.4" d="M349.83 170C351.2 167.28 358.56 165.57 362.58 165.58L365.58 178.94C365.58 178.94 357.58 190.83 354.24 189.57C350.31 188.12 346.9 175.87 349.83 170Z" fill="black"/>
<path d="M341.35 393.31C341.367 393.281 341.375 393.248 341.375 393.215C341.375 393.182 341.367 393.149 341.35 393.12C341.331 393.082 341.301 393.05 341.263 393.031C341.225 393.011 341.182 393.004 341.14 393.01C340.72 393.08 337.02 393.66 336.52 394.72C336.466 394.816 336.438 394.925 336.438 395.035C336.438 395.145 336.466 395.254 336.52 395.35C336.606 395.508 336.729 395.643 336.879 395.742C337.029 395.841 337.201 395.903 337.38 395.92C338.59 396.04 340.38 394.36 341.28 393.34L341.35 393.31ZM336.91 394.85C337.25 394.29 339.17 393.77 340.63 393.5C339.31 394.84 338.15 395.59 337.47 395.5C337.352 395.488 337.24 395.447 337.142 395.381C337.044 395.315 336.964 395.225 336.91 395.12C336.888 395.082 336.876 395.039 336.876 394.995C336.876 394.951 336.888 394.908 336.91 394.87C336.91 394.87 336.9 394.86 336.91 394.85Z" fill="#833586"/>
<path d="M341.35 393.31C341.366 393.281 341.375 393.248 341.375 393.215C341.375 393.182 341.366 393.149 341.35 393.12C341.29 393.05 339.81 391.34 338.44 391.25C338.242 391.233 338.044 391.258 337.856 391.321C337.669 391.385 337.496 391.487 337.35 391.62C336.94 391.99 336.98 392.31 337.08 392.51C337.51 393.37 340.17 393.67 341.24 393.44C341.267 393.429 341.292 393.412 341.311 393.389C341.33 393.366 341.344 393.339 341.35 393.31ZM337.44 392.05C337.484 391.982 337.538 391.921 337.6 391.87C337.704 391.771 337.829 391.695 337.965 391.649C338.102 391.602 338.246 391.585 338.39 391.6C339.32 391.829 340.156 392.343 340.78 393.07C339.59 393.17 337.67 392.81 337.41 392.29C337.393 392.251 337.387 392.208 337.392 392.166C337.398 392.124 337.414 392.084 337.44 392.05Z" fill="#833586"/>
<path d="M350.08 389.76L342.42 393.17L339.01 386.06L334.55 376.76L334.02 375.68L341.68 372.27L342.27 373.49L346.59 382.5L350.08 389.76Z" fill="#FFB573"/>
<path opacity="0.2" d="M346.59 382.5L339.01 386.06L334.55 376.76L342.27 373.49L346.59 382.5Z" fill="black"/>
<path d="M321.07 219.12C321.07 219.12 296.6 280 303.23 308.6C309.23 334.49 335.73 383.52 335.73 383.52L346 378.38C346 378.38 329.61 319.19 327.84 306.33C324.38 281.33 346.61 246 346.61 219.12H321.07Z" fill="#263238"/>
<path opacity="0.1" d="M321.07 219.12C321.07 219.12 296.6 280 303.23 308.6C309.23 334.49 335.73 383.52 335.73 383.52L346 378.38C346 378.38 329.61 319.19 327.84 306.33C324.38 281.33 346.61 246 346.61 219.12H321.07Z" fill="white"/>
<path d="M341.06 392.1L348.66 386.57C348.788 386.47 348.949 386.42 349.111 386.431C349.274 386.442 349.426 386.513 349.54 386.63L354.79 392.02C354.917 392.161 355.013 392.327 355.072 392.507C355.131 392.687 355.151 392.878 355.132 393.067C355.112 393.256 355.052 393.438 354.957 393.602C354.862 393.766 354.734 393.909 354.58 394.02C351.89 395.9 350.5 396.68 347.16 399.11C345.1 400.61 341 403.92 338.16 405.99C335.32 408.06 333.16 405.36 334.16 404.25C338.64 399.25 339.58 396.15 340.28 393.34C340.388 392.849 340.664 392.41 341.06 392.1Z" fill="#263238"/>
<path d="M335.07 385.69L348.3 379.64L346.61 374.25L332.44 380.71L335.07 385.69Z" fill="#833586"/>
<path d="M327.56 169.36C326.47 166.52 316.91 163.36 312.11 162.36L310 178.08C310 178.08 317.84 189.34 321.27 188.41C325.33 187.31 329.92 175.45 327.56 169.36Z" fill="#833586"/>
<path opacity="0.4" d="M327.56 169.36C326.47 166.52 316.91 163.36 312.11 162.36L310 178.08C310 178.08 317.84 189.34 321.27 188.41C325.33 187.31 329.92 175.45 327.56 169.36Z" fill="black"/>
<path d="M317.07 168.57C317.07 168.57 313.07 169.97 321.07 219.12H355.07C354.5 205.28 354.48 196.74 361.07 168.32C356.306 167.337 351.476 166.702 346.62 166.42C341.48 166.05 336.32 166.05 331.18 166.42C324.59 167 317.07 168.57 317.07 168.57Z" fill="#833586"/>
<path opacity="0.4" d="M317.07 168.57C317.07 168.57 313.07 169.97 321.07 219.12H355.07C354.5 205.28 354.48 196.74 361.07 168.32C356.306 167.337 351.476 166.702 346.62 166.42C341.48 166.05 336.32 166.05 331.18 166.42C324.59 167 317.07 168.57 317.07 168.57Z" fill="black"/>
<path d="M355.6 217.13L357.13 220.13C357.25 220.37 356.97 220.61 356.58 220.61H320.9C320.59 220.61 320.34 220.46 320.32 220.26L320.01 217.26C320.01 217.05 320.26 216.87 320.59 216.87H355C355.114 216.852 355.232 216.867 355.338 216.913C355.444 216.959 355.535 217.034 355.6 217.13Z" fill="#833586"/>
<path opacity="0.3" d="M355.6 217.13L357.13 220.13C357.25 220.37 356.97 220.61 356.58 220.61H320.9C320.59 220.61 320.34 220.46 320.32 220.26L320.01 217.26C320.01 217.05 320.26 216.87 320.59 216.87H355C355.114 216.852 355.232 216.867 355.338 216.913C355.444 216.959 355.535 217.034 355.6 217.13Z" fill="white"/>
<path d="M351 221H351.92C352.11 221 352.25 220.9 352.23 220.79L351.8 216.79C351.8 216.67 351.63 216.58 351.45 216.58H350.52C350.34 216.58 350.2 216.67 350.21 216.79L350.64 220.79C350.63 220.88 350.79 221 351 221Z" fill="#263238"/>
<path d="M328.61 221H329.53C329.71 221 329.85 220.9 329.84 220.79L329.41 216.79C329.41 216.67 329.24 216.58 329.05 216.58H328.13C327.94 216.58 327.81 216.67 327.82 216.79L328.25 220.79C328.26 220.88 328.42 221 328.61 221Z" fill="#263238"/>
<path d="M190.951 266.356L193.471 266.23L198.453 274.03L198.051 266.001L200.291 265.889L200.866 277.39L198.463 277.51L193.357 269.576L193.765 277.745L191.526 277.857L190.951 266.356ZM206.671 275.527C207.321 275.495 207.809 275.238 208.134 274.758C208.459 274.277 208.601 273.611 208.558 272.758C208.515 271.904 208.308 271.258 207.937 270.817C207.565 270.372 207.054 270.165 206.404 270.198C205.754 270.23 205.263 270.487 204.933 270.968C204.607 271.443 204.466 272.107 204.509 272.96C204.551 273.813 204.758 274.463 205.13 274.908C205.507 275.353 206.02 275.56 206.671 275.527ZM210.891 272.641C210.954 273.889 210.648 274.976 209.975 275.902C209.301 276.822 208.234 277.319 206.772 277.392C205.31 277.465 204.198 277.077 203.436 276.229C202.674 275.375 202.261 274.324 202.199 273.076C202.137 271.848 202.443 270.766 203.116 269.83C203.789 268.895 204.856 268.39 206.318 268.317C207.78 268.244 208.892 268.639 209.655 269.503C210.418 270.367 210.83 271.413 210.891 272.641ZM219.664 272.092L222.582 271.947L220.92 267.493L219.664 272.092ZM219.454 264.93L222.169 264.794L226.818 276.092L224.212 276.222L223.352 273.895L219.115 274.107L218.438 276.511L215.925 276.637L219.454 264.93ZM232.289 267.088C232.331 267.086 232.364 267.087 232.391 267.091C232.422 267.089 232.487 267.089 232.586 267.089L232.7 269.367C232.559 269.359 232.434 269.355 232.324 269.355C232.215 269.355 232.126 269.357 232.058 269.36C231.164 269.405 230.577 269.727 230.3 270.325C230.144 270.661 230.084 271.17 230.118 271.851L230.321 275.916L228.082 276.028L227.656 267.523L229.779 267.417L229.853 268.9C230.168 268.316 230.448 267.913 230.692 267.692C231.091 267.323 231.623 267.122 232.289 267.088ZM233.116 268.916L233.036 267.332L234.222 267.273L234.104 264.901L236.304 264.791L236.423 267.163L237.804 267.094L237.883 268.678L236.502 268.747L236.727 273.241C236.744 273.59 236.799 273.806 236.892 273.89C236.985 273.969 237.257 273.997 237.71 273.974C237.778 273.971 237.848 273.968 237.921 273.964C237.998 273.955 238.074 273.946 238.146 273.937L238.229 275.599L237.178 275.691C236.129 275.78 235.402 275.634 234.997 275.252C234.735 275.01 234.59 274.623 234.564 274.093L234.302 268.857L233.116 268.916ZM241.463 265.816L239.208 265.929L239.106 263.877L241.361 263.764L241.463 265.816ZM239.259 266.943L241.514 266.83L241.94 275.335L239.685 275.448L239.259 266.943ZM248.908 269.519C248.85 269.204 248.729 268.923 248.545 268.677C248.278 268.346 247.882 268.193 247.356 268.22C246.607 268.257 246.114 268.655 245.875 269.412C245.749 269.815 245.703 270.344 245.735 271C245.767 271.624 245.865 272.122 246.029 272.495C246.33 273.189 246.847 273.517 247.58 273.481C248.101 273.455 248.463 273.296 248.667 273.004C248.872 272.712 248.986 272.341 249.011 271.892L251.281 271.778C251.263 272.457 251.051 273.109 250.644 273.734C249.995 274.742 248.987 275.28 247.619 275.348C246.251 275.417 245.224 275.061 244.539 274.282C243.853 273.503 243.478 272.466 243.413 271.17C243.34 269.709 243.639 268.554 244.311 267.707C244.983 266.86 245.946 266.405 247.2 266.342C248.266 266.289 249.15 266.485 249.85 266.929C250.555 267.374 251.001 268.199 251.186 269.405L248.908 269.519ZM255.267 274.669L253.043 274.78L252.468 263.279L254.691 263.167L255.267 274.669ZM260.454 267.494C259.939 267.52 259.546 267.701 259.276 268.038C259.012 268.375 258.857 268.82 258.811 269.375L262.268 269.203C262.202 268.617 262 268.181 261.663 267.895C261.33 267.604 260.927 267.47 260.454 267.494ZM260.362 265.661C261.069 265.625 261.713 265.726 262.294 265.963C262.874 266.2 263.363 266.595 263.761 267.149C264.119 267.637 264.364 268.211 264.496 268.872C264.573 269.259 264.625 269.82 264.651 270.554L258.83 270.845C258.904 271.697 259.202 272.281 259.724 272.6C260.041 272.797 260.416 272.886 260.848 272.864C261.305 272.841 261.671 272.692 261.944 272.418C262.093 272.27 262.221 272.068 262.328 271.812L264.599 271.699C264.567 272.206 264.33 272.732 263.887 273.275C263.201 274.139 262.202 274.603 260.891 274.669C259.809 274.723 258.837 274.422 257.975 273.766C257.113 273.111 256.643 271.997 256.564 270.427C256.49 268.954 256.806 267.807 257.511 266.984C258.22 266.161 259.171 265.72 260.362 265.661ZM267.935 271.313C268.002 271.706 268.117 271.981 268.282 272.14C268.572 272.423 269.089 272.546 269.833 272.508C270.27 272.487 270.613 272.404 270.861 272.261C271.115 272.118 271.235 271.917 271.222 271.657C271.21 271.407 271.096 271.222 270.881 271.103C270.667 270.983 269.883 270.798 268.53 270.548C267.556 270.356 266.862 270.091 266.449 269.752C266.036 269.418 265.813 268.918 265.78 268.252C265.74 267.467 266.013 266.778 266.599 266.186C267.19 265.588 268.044 265.261 269.163 265.205C270.224 265.152 271.098 265.322 271.785 265.715C272.477 266.103 272.899 266.814 273.05 267.85L270.826 267.961C270.78 267.676 270.688 267.454 270.55 267.294C270.291 267.005 269.867 266.875 269.279 266.904C268.795 266.928 268.453 267.021 268.253 267.182C268.057 267.343 267.965 267.525 267.975 267.728C267.988 267.983 268.106 268.162 268.33 268.266C268.555 268.374 269.337 268.541 270.678 268.766C271.573 268.93 272.252 269.212 272.715 269.611C273.174 270.015 273.419 270.538 273.451 271.178C273.493 272.02 273.213 272.725 272.61 273.293C272.012 273.854 271.058 274.168 269.747 274.234C268.41 274.3 267.408 274.069 266.74 273.539C266.077 273.004 265.724 272.299 265.68 271.425L267.935 271.313Z" fill="#833586"/>
</svg>
