<svg width="20" height="22" viewBox="0 0 20 22" fill="none" xmlns="http://www.w3.org/2000/svg">
<path d="M7 4.25C6.80109 4.25 6.61032 4.32902 6.46967 4.46967C6.32902 4.61032 6.25 4.80109 6.25 5C6.25 5.19891 6.32902 5.38968 6.46967 5.53033C6.61032 5.67098 6.80109 5.75 7 5.75H13C13.1989 5.75 13.3897 5.67098 13.5303 5.53033C13.671 5.38968 13.75 5.19891 13.75 5C13.75 4.80109 13.671 4.61032 13.5303 4.46967C13.3897 4.32902 13.1989 4.25 13 4.25H7Z" fill="#757575"/>
<path fill-rule="evenodd" clip-rule="evenodd" d="M9.943 0.25C7.87 0.25 6.237 0.25 4.961 0.423C3.651 0.601 2.606 0.975 1.785 1.805C0.965 2.634 0.597 3.687 0.421 5.007C0.25 6.296 0.25 7.945 0.25 10.041V15.139C0.25 16.647 0.25 17.84 0.346 18.739C0.441 19.627 0.644 20.428 1.226 20.964C1.692 21.394 2.282 21.664 2.912 21.737C3.699 21.827 4.434 21.451 5.159 20.937C5.892 20.419 6.781 19.632 7.903 18.64L7.939 18.608C8.459 18.148 8.811 17.838 9.105 17.622C9.389 17.415 9.562 17.34 9.708 17.31C9.90081 17.272 10.0992 17.272 10.292 17.31C10.438 17.34 10.612 17.415 10.895 17.622C11.189 17.837 11.541 18.148 12.061 18.608L12.098 18.64C13.219 19.632 14.108 20.419 14.841 20.938C15.566 21.451 16.301 21.827 17.088 21.737C17.7177 21.6646 18.3081 21.3939 18.774 20.964C19.355 20.428 19.559 19.627 19.654 18.739C19.75 17.84 19.75 16.647 19.75 15.139V10.041C19.75 7.945 19.75 6.295 19.579 5.007C19.403 3.687 19.035 2.634 18.215 1.805C17.394 0.975 16.349 0.601 15.039 0.423C13.763 0.25 12.13 0.25 10.057 0.25H9.943ZM2.85 2.86C3.347 2.358 4.022 2.065 5.162 1.91C6.325 1.752 7.856 1.75 9.999 1.75C12.142 1.75 13.673 1.752 14.836 1.91C15.976 2.065 16.651 2.358 17.148 2.86C17.646 3.363 17.937 4.048 18.091 5.205C18.247 6.383 18.249 7.932 18.249 10.098V15.091C18.249 16.657 18.248 17.771 18.162 18.579C18.072 19.409 17.909 19.72 17.757 19.861C17.523 20.076 17.229 20.211 16.917 20.246C16.717 20.269 16.383 20.192 15.707 19.714C15.049 19.247 14.22 18.516 13.054 17.484L13.028 17.461C12.54 17.03 12.136 16.673 11.779 16.411C11.406 16.139 11.03 15.929 10.587 15.84C10.1989 15.7619 9.79911 15.7619 9.411 15.84C8.968 15.93 8.591 16.139 8.219 16.412C7.862 16.672 7.458 17.03 6.97 17.461L6.944 17.484C5.778 18.516 4.949 19.247 4.291 19.714C3.615 20.192 3.281 20.269 3.081 20.246C2.76726 20.21 2.47309 20.0752 2.241 19.861C2.089 19.72 1.925 19.409 1.837 18.579C1.75 17.77 1.749 16.657 1.749 15.091V10.097C1.749 7.932 1.751 6.383 1.907 5.205C2.061 4.048 2.352 3.363 2.85 2.86Z" fill="#757575"/>
</svg>
