<svg width="136" height="151" viewBox="0 0 136 151" fill="none" xmlns="http://www.w3.org/2000/svg">
<path fill-rule="evenodd" clip-rule="evenodd" d="M135.5 68.235V105.682C135.5 128.902 135.5 140.52 129.995 145.59C127.37 148.013 124.055 149.535 120.522 149.94C113.12 150.788 104.472 143.137 87.185 127.845C79.535 121.087 75.7175 117.705 71.3 116.82C69.1219 116.381 66.8781 116.381 64.7 116.82C60.275 117.705 56.4575 121.087 48.815 127.845C31.5275 143.137 22.88 150.787 15.4775 149.932C11.9393 149.527 8.62184 148.006 6.005 145.59C0.5 140.52 0.5 128.91 0.5 105.682V68.2275C0.5 36.075 0.499999 19.9875 10.385 9.9975C20.27 0 36.185 0 68 0C99.8225 0 115.73 0 125.615 9.99C135.5 19.9875 135.5 36.075 135.5 68.235ZM39.875 30C39.875 28.5082 40.4676 27.0774 41.5225 26.0225C42.5774 24.9676 44.0082 24.375 45.5 24.375H90.5C91.9918 24.375 93.4226 24.9676 94.4775 26.0225C95.5324 27.0774 96.125 28.5082 96.125 30C96.125 31.4918 95.5324 32.9226 94.4775 33.9775C93.4226 35.0324 91.9918 35.625 90.5 35.625H45.5C44.0082 35.625 42.5774 35.0324 41.5225 33.9775C40.4676 32.9226 39.875 31.4918 39.875 30Z" fill="#833586"/>
</svg>
